<?xml version="1.0" encoding="UTF-8"?>
<svg id="Capa_1" xmlns="http://www.w3.org/2000/svg" version="1.1" viewBox="0 0 256 228">
  <!-- Generator: Adobe Illustrator 29.5.1, SVG Export Plug-In . SVG Version: 2.1.0 Build 141)  -->
  <defs>
    <style>
      .st0 {
        fill: #fff;
      }

      .st1 {
        fill: #142943;
      }
    </style>
  </defs>
  <path class="st1" d="M84.59,19.53c25.42-1.82,63.38-2.08,88.75-.34,31.46,2.16,55.05,22.94,60.99,54.01,3.49,18.26,3.69,59.35-.66,77.41-5.35,22.18-23.81,41.82-45.86,48.14-11.07,3.17-27.66,3.19-39.46,3.54-20.34.59-53.23.24-71.23-.4-3.49-.12-13.81,7.39-18.89,9.19-5.8,2.05-15.83,7.53-20.55,4.98-5.74-3.1-2.12-26.51-4.07-35.1-.5-2.2-3.88-6.66-8.95-17.75-10.72-23.49-13.13-79-4.32-100.94,10.97-27.32,35.84-40.69,64.28-42.72ZM115.44,118.88c-3.12,2.83-4.91,4.4-9.02,2.22-3.07-1.63-10.07-11.03-13.61-14.38-2.33-2.2-9.64-8.92-12.01-9.99-12.13-5.51-24.54,9.37-16,21,5.49,7.47,24.99,26.6,32.52,32.48,11.79,9.19,17.15,7.34,28-1.94,20.7-17.72,39.62-45.93,60.47-64.53,8.92-10.39-6.89-26.91-17.95-19.95-2.18,1.37-11.64,10.53-14.04,12.96-12.67,12.84-25.27,30.25-38.36,42.14Z"/>
  <path class="st0" d="M115.44,118.88c13.09-11.89,25.69-29.3,38.36-42.14,2.4-2.43,11.85-11.59,14.04-12.96,11.07-6.96,26.87,9.57,17.95,19.95-20.85,18.6-39.77,46.81-60.47,64.53-10.84,9.28-16.21,11.14-28,1.94-7.53-5.87-27.04-25-32.52-32.48-8.53-11.63,3.87-26.51,16-21,2.36,1.07,9.67,7.79,12.01,9.99,3.55,3.35,10.54,12.75,13.61,14.38,4.1,2.18,5.9.61,9.02-2.22Z"/>
</svg>